<?xml version="1.0" standalone="no"?>
<!DOCTYPE svg PUBLIC "-//W3C//DTD SVG 20010904//EN"
 "http://www.w3.org/TR/2001/REC-SVG-20010904/DTD/svg10.dtd">
<svg version="1.0" xmlns="http://www.w3.org/2000/svg"
 width="192.000000pt" height="192.000000pt" viewBox="0 0 192.000000 192.000000"
 preserveAspectRatio="xMidYMid meet">
<metadata>
Created by potrace 1.11, written by Peter Selinger 2001-2013
</metadata>
<g transform="translate(0.000000,192.000000) scale(0.100000,-0.100000)"
fill="#000000" stroke="none">
<path d="M859 1716 c-2 -2 -20 -7 -39 -10 -124 -20 -256 -90 -363 -192 -70
-68 -126 -152 -168 -253 -24 -56 -43 -86 -80 -119 -113 -101 -167 -230 -167
-392 2 -236 168 -441 403 -495 35 -9 77 -15 92 -14 16 0 75 1 133 0 58 0 114
0 125 0 11 0 130 0 265 0 240 -1 390 4 420 12 87 24 183 79 246 142 206 204
204 530 -5 735 -50 50 -73 81 -85 116 -38 115 -136 247 -241 326 -127 96 -247
138 -416 144 -63 3 -117 3 -120 0z m264 -354 c80 -37 155 -108 192 -182 30
-59 34 -72 41 -150 6 -60 11 -68 40 -74 117 -24 183 -131 153 -249 -14 -57
-72 -119 -126 -135 -26 -7 -181 -11 -473 -10 -434 0 -435 0 -481 23 -114 58
-143 215 -56 308 79 86 213 86 295 0 12 -13 22 -28 22 -34 0 -5 4 -9 10 -9 12
0 230 217 230 229 0 12 -91 95 -136 123 -21 14 -68 36 -102 48 l-64 23 29 28
c70 64 169 98 279 95 66 -2 93 -8 147 -34z"/>
</g>
</svg>
